<?xml version="1.0" encoding="utf-8"?>
<!-- Generator: Adobe Illustrator 15.1.0, SVG Export Plug-In . SVG Version: 6.00 Build 0)  -->
<!DOCTYPE svg PUBLIC "-//W3C//DTD SVG 1.1//EN" "http://www.w3.org/Graphics/SVG/1.1/DTD/svg11.dtd">
<svg version="1.1" id="keyboard_icon" xmlns="http://www.w3.org/2000/svg" xmlns:xlink="http://www.w3.org/1999/xlink" x="0px" y="0px"
	 width="76.699px" height="62.003px" viewBox="0 0 76.699 62.003" enable-background="new 0 0 76.699 62.003" xml:space="preserve">
<g>
	<defs>
		<rect id="SVGID_1_" width="76.699" height="62.003"/>
	</defs>
	<clipPath id="SVGID_2_">
		<use xlink:href="#SVGID_1_"  overflow="visible"/>
	</clipPath>
	<path clip-path="url(#SVGID_2_)" fill="#FFBC00" d="M71.031,20.477H16.862c-1.15-2.973-2.453-8.461,1.971-11.472
		c5.399-3.672,10.041-2.162,16.466-0.069c4.234,1.379,9.034,2.942,14.923,3.223c15.221,0.725,24.072-9.457,24.44-9.891L71.996,0
		c-0.08,0.092-8.13,9.296-21.608,8.662c-5.419-0.258-9.98-1.744-14.006-3.055c-6.815-2.219-12.7-4.136-19.518,0.504
		c-5.34,3.634-5.141,9.786-3.714,14.365H5.669C2.543,20.477,0,23.02,0,26.146v30.188c0,3.125,2.543,5.67,5.669,5.67h65.362
		c3.125,0,5.668-2.545,5.668-5.67V26.146C76.699,23.02,74.156,20.477,71.031,20.477 M73.199,56.334c0,1.195-0.974,2.17-2.168,2.17
		H5.669c-1.196,0-2.169-0.975-2.169-2.17V26.146c0-1.196,0.973-2.169,2.169-2.169h65.362c1.194,0,2.168,0.973,2.168,2.169V56.334z"
		/>
	<path clip-path="url(#SVGID_2_)" fill="#FFBC00" d="M16.682,30.501h-3.561c-0.338,0-0.615,0.277-0.615,0.615v3.561
		c0,0.338,0.277,0.615,0.615,0.615h3.561c0.338,0,0.615-0.277,0.615-0.615v-3.561C17.297,30.778,17.02,30.501,16.682,30.501"/>
	<path clip-path="url(#SVGID_2_)" fill="#FFBC00" d="M20.937,35.291h3.561c0.338,0,0.615-0.275,0.615-0.613v-3.563
		c0-0.338-0.277-0.615-0.615-0.615h-3.561c-0.338,0-0.615,0.277-0.615,0.615v3.563C20.322,35.016,20.599,35.291,20.937,35.291"/>
	<path clip-path="url(#SVGID_2_)" fill="#FFBC00" d="M28.753,35.291h3.561c0.338,0,0.615-0.275,0.615-0.613v-3.563
		c0-0.338-0.277-0.615-0.615-0.615h-3.561c-0.338,0-0.615,0.277-0.615,0.615v3.563C28.138,35.016,28.415,35.291,28.753,35.291"/>
	<path clip-path="url(#SVGID_2_)" fill="#FFBC00" d="M36.569,35.291h3.562c0.337,0,0.614-0.275,0.614-0.613v-3.563
		c0-0.338-0.277-0.615-0.614-0.615h-3.562c-0.338,0-0.615,0.277-0.615,0.615v3.563C35.954,35.016,36.231,35.291,36.569,35.291"/>
	<path clip-path="url(#SVGID_2_)" fill="#FFBC00" d="M44.386,35.291h3.561c0.337,0,0.614-0.275,0.614-0.613v-3.563
		c0-0.338-0.277-0.615-0.614-0.615h-3.561c-0.34,0-0.615,0.277-0.615,0.615v3.563C43.771,35.016,44.046,35.291,44.386,35.291"/>
	<path clip-path="url(#SVGID_2_)" fill="#FFBC00" d="M55.763,30.501H52.2c-0.337,0-0.614,0.277-0.614,0.615v3.561
		c0,0.338,0.277,0.615,0.614,0.615h3.563c0.338,0,0.613-0.277,0.613-0.615v-3.561C56.376,30.778,56.101,30.501,55.763,30.501"/>
	<path clip-path="url(#SVGID_2_)" fill="#FFBC00" d="M63.578,30.501h-3.562c-0.337,0-0.615,0.277-0.615,0.615v3.561
		c0,0.338,0.278,0.615,0.615,0.615h3.562c0.338,0,0.613-0.277,0.613-0.615v-3.561C64.191,30.778,63.916,30.501,63.578,30.501"/>
	<path clip-path="url(#SVGID_2_)" fill="#FFBC00" d="M16.682,38.779h-3.561c-0.338,0-0.615,0.277-0.615,0.615v3.562
		c0,0.338,0.277,0.614,0.615,0.614h3.561c0.338,0,0.615-0.276,0.615-0.614v-3.562C17.297,39.057,17.02,38.779,16.682,38.779"/>
	<path clip-path="url(#SVGID_2_)" fill="#FFBC00" d="M25.113,42.955v-3.561c0-0.337-0.277-0.615-0.615-0.615h-3.561
		c-0.338,0-0.615,0.278-0.615,0.615v3.561c0,0.339,0.277,0.615,0.615,0.615h3.561C24.836,43.57,25.113,43.294,25.113,42.955"/>
	<path clip-path="url(#SVGID_2_)" fill="#FFBC00" d="M28.753,43.57h3.561c0.338,0,0.615-0.276,0.615-0.614v-3.562
		c0-0.338-0.277-0.615-0.615-0.615h-3.561c-0.338,0-0.615,0.277-0.615,0.615v3.562C28.138,43.294,28.415,43.57,28.753,43.57"/>
	<path clip-path="url(#SVGID_2_)" fill="#FFBC00" d="M36.569,43.57h3.562c0.337,0,0.614-0.276,0.614-0.614v-3.562
		c0-0.338-0.277-0.615-0.614-0.615h-3.562c-0.338,0-0.615,0.277-0.615,0.615v3.562C35.954,43.294,36.231,43.57,36.569,43.57"/>
	<path clip-path="url(#SVGID_2_)" fill="#FFBC00" d="M44.386,43.57h3.561c0.337,0,0.614-0.276,0.614-0.614v-3.562
		c0-0.338-0.277-0.615-0.614-0.615h-3.561c-0.34,0-0.615,0.277-0.615,0.615v3.562C43.771,43.294,44.046,43.57,44.386,43.57"/>
	<path clip-path="url(#SVGID_2_)" fill="#FFBC00" d="M55.763,38.779H52.2c-0.337,0-0.614,0.277-0.614,0.615v3.562
		c0,0.338,0.277,0.614,0.614,0.614h3.563c0.338,0,0.613-0.276,0.613-0.614v-3.562C56.376,39.057,56.101,38.779,55.763,38.779"/>
	<path clip-path="url(#SVGID_2_)" fill="#FFBC00" d="M63.578,38.779h-3.562c-0.337,0-0.615,0.277-0.615,0.615v3.562
		c0,0.338,0.278,0.614,0.615,0.614h3.562c0.338,0,0.613-0.276,0.613-0.614v-3.562C64.191,39.057,63.916,38.779,63.578,38.779"/>
	<path clip-path="url(#SVGID_2_)" fill="#FFBC00" d="M16.682,47.188h-3.561c-0.338,0-0.615,0.276-0.615,0.615v3.562
		c0,0.338,0.277,0.614,0.615,0.614h3.561c0.338,0,0.615-0.276,0.615-0.614v-3.562C17.297,47.464,17.02,47.188,16.682,47.188"/>
	<path clip-path="url(#SVGID_2_)" fill="#FFBC00" d="M63.578,47.188h-3.562c-0.337,0-0.615,0.276-0.615,0.615v3.562
		c0,0.338,0.278,0.614,0.615,0.614h3.562c0.338,0,0.613-0.276,0.613-0.614v-3.562C64.191,47.464,63.916,47.188,63.578,47.188"/>
	<rect x="22.718" y="47.834" clip-path="url(#SVGID_2_)" fill="#FFBC00" width="31.264" height="3.5"/>
</g>
</svg>
